<svg xmlns="http://www.w3.org/2000/svg" class="mozwebext" width="150" height="150"><path d="M66.558 8.443c29.89 0 55.178 19.707 63.585 46.834-9.617 1.439-16.996 9.705-16.996 19.722 0 10.019 7.38 18.288 16.996 19.722-8.407 27.129-33.695 46.836-63.585 46.836C29.802 141.557 0 111.757 0 75 0 38.24 29.802 8.443 66.558 8.443z" fill="#020051" fill-rule="evenodd"/><path d="M116.722 74.705c0-9.186 7.453-16.64 16.64-16.64 9.184 0 16.638 7.453 16.638 16.64 0 9.185-7.454 16.639-16.638 16.639-9.187 0-16.64-7.454-16.64-16.639z" fill="#b50c16" fill-rule="evenodd"/><path d="M20.369 48.251c0-1.012 1.023-2.11 2.052-2.11h39.166c1.08 0 1.787 1.063 1.787 2.11v53.745c0 1.02-.58 1.862-1.787 1.862H45.702c-1.06 0-1.567-.74-1.567-1.862V62.004c0-2.79-4.527-2.723-4.527.012v39.98a1.847 1.847 0 0 1-1.846 1.862H22.421c-1.095 0-2.052-.727-2.052-1.862zm47.532 53.852c0 1.01.17 1.755 1.196 1.755h39.167c1.082 0 1.51-.71 1.51-1.755V48.36c0-1.021-.304-2.217-1.509-2.217H92.38c-1.06 0-1.845 1.093-1.845 2.217v39.99c0 2.793-4.527 2.723-4.527-.012V48.36c0-1.086-.595-2.217-1.569-2.217H69.097c-1.093 0-1.196 1.081-1.196 2.217z" fill="#fff" fill-rule="evenodd"/><g fill="#fff"><path d="M135.197 81.415h-2.573v-4.962c0-1.05-.055-1.728-.165-2.033a1.419 1.419 0 0 0-.54-.723c-.244-.17-.54-.256-.888-.256-.445 0-.845.122-1.2.366a1.87 1.87 0 0 0-.732.97c-.128.403-.192 1.148-.192 2.234v4.404h-2.573v-9.723h2.39v1.428c.848-1.098 1.916-1.648 3.204-1.648.568 0 1.087.104 1.557.312.47.201.824.46 1.062.778.244.317.412.677.503 1.08.098.403.147.98.147 1.73v6.043M137.815 81.415V67.993h2.573v13.422h-2.573"/></g></svg>