<svg xmlns="http://www.w3.org/2000/svg" xmlns:xlink="http://www.w3.org/1999/xlink" width="64" height="64"><defs><linearGradient id="a"><stop stop-color="#fff" stop-opacity="0"/><stop offset=".112" stop-color="#fff"/><stop offset=".317" stop-color="#fff" stop-opacity="0"/><stop offset=".392" stop-color="#fff" stop-opacity="0"/><stop offset=".564" stop-color="#fff" stop-opacity=".65"/><stop offset=".745" stop-color="#fff" stop-opacity="0"/><stop offset="1" stop-color="#fff" stop-opacity="0"/></linearGradient><linearGradient id="b"><stop stop-color="#c18e25"/><stop offset="1" stop-color="#c1d525"/></linearGradient><filter id="c" color-interpolation-filters="sRGB"><feGaussianBlur stdDeviation="4.37596"/></filter><linearGradient xlink:href="#a" id="e" gradientUnits="userSpaceOnUse" gradientTransform="rotate(45 892.98337 839.01749) scale(1 1.81366)" x1="-.00001" x2="1000"/><linearGradient xlink:href="#b" id="d" gradientUnits="userSpaceOnUse" x1="196.68637" y1="388.74646" x2="290.89426" y2="497.34134"/></defs><g transform="matrix(.21722 0 0 .21722 -30.08308 -67.6244)" opacity=".45933" filter="url(#c)" fill-opacity=".63187"><path d="M188.05859 442.04028h92.77344v33.20312h-92.77344v-33.20312m-4.88281 86.91406h-34.17969v-97.16797c.00001-11.91395 4.26432-22.1353 12.79297-30.66406 8.52863-8.52851 18.91273-12.79283 31.15235-12.79297h87.89062v33.20312h-87.89062c-2.60421.00011-4.88285.97667-6.83594 2.92969-1.95316 1.95323-2.92972 4.39463-2.92969 7.32422v97.16797M290.79297 475.2434v-33.20312h87.89062c2.60408.00008 4.88273-.97648 6.83594-2.92969 1.95303-1.95304 2.92959-4.39444 2.92969-7.32422-.0001-2.92959-.97666-5.37099-2.92969-7.32422-1.95321-1.95302-4.23186-2.92958-6.83594-2.92969h-87.89062v-33.20312h87.89062c12.23949.00014 22.62359 4.26446 31.15235 12.79297 8.52852 8.52876 12.79284 18.75011 12.79297 30.66406-.00013 10.67717-3.12513 19.62898-9.375 26.85547 6.24987 7.22662 9.37487 16.17844 9.375 26.85547-.00013 11.91409-4.26445 22.13543-12.79297 30.66406-8.52876 8.52865-18.91286 12.79297-31.15235 12.79297h-87.89062v-33.20313h87.89062c2.60408.00004 4.88273-.97653 6.83594-2.92968 1.95303-1.95309 2.92959-4.3945 2.92969-7.32422-.0001-2.92964-.97666-5.37105-2.92969-7.32422-1.95321-1.95307-4.23186-2.92964-6.83594-2.92969h-87.89062"/></g><g transform="matrix(.21722 0 0 .21722 -30.08308 -67.6244)" fill="url(#d)"><path d="M188.05859 442.04028h92.77344v33.20312h-92.77344v-33.20312m-4.88281 86.91406h-34.17969v-97.16797c.00001-11.91395 4.26432-22.1353 12.79297-30.66406 8.52863-8.52851 18.91273-12.79283 31.15235-12.79297h87.89062v33.20312h-87.89062c-2.60421.00011-4.88285.97667-6.83594 2.92969-1.95316 1.95323-2.92972 4.39463-2.92969 7.32422v97.16797M290.79297 475.2434v-33.20312h87.89062c2.60408.00008 4.88273-.97648 6.83594-2.92969 1.95303-1.95304 2.92959-4.39444 2.92969-7.32422-.0001-2.92959-.97666-5.37099-2.92969-7.32422-1.95321-1.95302-4.23186-2.92958-6.83594-2.92969h-87.89062v-33.20312h87.89062c12.23949.00014 22.62359 4.26446 31.15235 12.79297 8.52852 8.52876 12.79284 18.75011 12.79297 30.66406-.00013 10.67717-3.12513 19.62898-9.375 26.85547 6.24987 7.22662 9.37487 16.17844 9.375 26.85547-.00013 11.91409-4.26445 22.13543-12.79297 30.66406-8.52876 8.52865-18.91286 12.79297-31.15235 12.79297h-87.89062v-33.20313h87.89062c2.60408.00004 4.88273-.97653 6.83594-2.92968 1.95303-1.95309 2.92959-4.3945 2.92969-7.32422-.0001-2.92964-.97666-5.37105-2.92969-7.32422-1.95321-1.95307-4.23186-2.92964-6.83594-2.92969h-87.89062"/></g><path d="M175.60441 295.26431L-.00034 470.34329v339.11698H125.1312V454.04465c-.0001-10.70628 3.37738-19.67577 10.51526-26.8139 7.13762-7.13738 15.1937-10.51487 24.71084-10.51525h321.24102V295.26431h-305.9939m342.7973 0V416.7155h321.24102c9.5167.00038 17.57275 3.37787 24.71084 10.51525 7.13742 7.13813 10.51491 16.10762 10.51526 26.8139-.00035 10.70697-3.37784 19.67646-10.51526 26.8139-7.13809 7.13807-15.19415 11.04132-24.71084 11.04102H518.40171v120.92542h321.24102c9.5167.00019 17.57275 3.90345 24.71084 11.04102 7.13742 7.13792 10.51491 16.10742 10.51526 26.8139-.00035 10.70678-3.37784 19.67626-10.51526 26.81386-7.13809 7.1379-15.19415 10.5154-24.71084 10.5153H518.40171v121.4512h321.24102c44.7296 0 82.39613-15.6247 113.56474-46.7929 31.16776-31.1681 46.79241-68.447 46.79293-111.98746-.00052-39.01956-11.33426-71.9077-34.17462-98.31763 22.84036-26.40944 34.1741-59.29757 34.17462-98.31763-.00052-43.53993-15.62517-80.81882-46.79293-111.98746-31.1686-31.16772-68.83514-46.79238-113.56474-46.79288H518.40171M143.00712 491.89957v120.92542h338.5912V491.89957h-338.5912" opacity=".75" fill="url(#e)" transform="matrix(.05944 0 0 .05944 2.28127 -.83101)"/></svg>