<svg xmlns="http://www.w3.org/2000/svg" width="150" height="150"><g transform="matrix(2.7274 0 0 2.7274 -.004 -2.732)"><path d="M51.916 24.327s-7.4-13.3-10.9-19.8c-1.1-2-2.3-3-3.5-3.4-1.2-.3-2.7-.1-4.8 1-6.5 3.6-19.8 10.9-19.8 10.9s-4.7 2-5.7 5.5c-1 3.4-6.2 21.2-6.2 21.2s-.6 3.9 2.7 4.9c3.3 1 19.5 5.6 19.5 5.6s16.2 4.7 19.5 5.6c3.3 1 4.9-2.7 4.9-2.7s5.2-17.8 6.2-21.2c1-3.4-1.9-7.6-1.9-7.6z" clip-rule="evenodd" fill="#179eda" fill-rule="evenodd"/><path d="M30 24.25c1.2-1.4 2.6-3.6 4.3-4.8 1.7-1 4.1-1.4 5.9-.5 2.1 1 3.5 3 3.7 5.4v18.1h-4.5v-17.3c0-.8-.6-1.4-1.3-1.7-.9-.2-1.7.2-2.3.8l-5.8 7v11.1h-4.5v-5c-1.1 1.2-2.2 2.6-3.3 3.6-1.4 1.2-3.3 1.7-5.4 1.4-.5-.2-1.1-.2-1.6-.5-5.5-2.5-3.8-10-4-15.7.2-2.6.8-5.5 3.1-6.7v-.1c.5-.1.9-.5 1.4-.5.4-.1.8-.2 1.3-.2.4-.2 1-.1 1.5-.1 2.6.4 4.5 2.4 6.1 4.4.3.5.6.9 1 1.4l.1-.1v-3.6l4.6-6.1v9.7zm-12-1.1c-.8-.1-1.6.3-1.9 1-.9 2.9-.5 6.5-.5 9.7.2 1.4.1 2.9 1.2 3.7.1.1.3 0 .3.2.9.1 1.7-.1 2.3-.6 2.2-1.7 3.6-4 5.2-6.1-1-1.8-2.1-3.4-3.3-5.1-.9-1-1.8-2.3-3.3-2.8z" clip-rule="evenodd" fill="#fff" fill-rule="evenodd"/></g></svg>