<svg xmlns="http://www.w3.org/2000/svg" width="150" height="150" viewBox="0 0 1113.188 1083.3"><path d="M139.415 545.986c-.295 3.279-1.64 7.77-3.984 13.566q-4.098 9.738-5.016 13.722a247.881 247.881 0 0 0-4.279 27.434 40.542 40.542 0 0 0-.147 6.353q.295 5.738.295 7.082 0 12.377-8.263 14.295l-3.688 1.336q-2.509.886-3.541.59-3.689-1.18-11.058-4.426-2.525-1.64-2.95-7.082v-8.41c0-.82-.058-2.205-.157-4.279-.098-2.073-.147-3.532-.147-4.426a11.689 11.689 0 0 1 .59-2.869 11.754 11.754 0 0 0 .59-3.033 4.64 4.64 0 0 0-1.64-3.532c-1.581-.304-2.606-.304-3.106 0q-12.246 7.082-29.508 7.811a87.477 87.477 0 0 1-32.46-4.565q-16.041-5.46-23.566-15.206-3.098-3.828-5.238-12.09a66.198 66.198 0 0 1-2.14-16.664 44.32 44.32 0 0 1 1.034-10.033q1.033-4.426 3.54-12.689.738-1.926 8.706-14.607 4.098-5.328 11.475-15.344 3.115-4.426 15.968-15.632 8.689-7.532 17.402-15.197 8.27-7.393 12.836-9.885a37.148 37.148 0 0 1 15.787-4.541c1.64-.09 3.976.393 6.927 1.475a163.798 163.798 0 0 0 7.23 3.099q5.737 2.36 9.737 11.648a41.468 41.468 0 0 1 3.689 17.557q-.148 10.033-5.607 12.246-3.689 1.476-9.295-1.328-2.066-1.024-5.451-9.287-3.099-7.377-6.64-7.23-5.467.132-15.049 6.632a97.633 97.633 0 0 0-14.46 12.074q-17.114 17.213-24.778 27.87-9.164 12.549-12.697 25.246a9.131 9.131 0 0 0 1.188 7.377q2.943 5.164 11.214 7.377 7.377 1.64 14.754 3.098a17.697 17.697 0 0 0 4.279 2.509q5.016.147 9.147.147 27.73-.295 38.066-11.475a5.598 5.598 0 0 0 1.468-4.099 2.984 2.984 0 0 0-1.64-2.803q-2.23.295-21.393 4.279a177.42 177.42 0 0 1-23.443 3.426c-1.77.106-3.689-1.205-5.738-3.902a17.722 17.722 0 0 1-3.689-8.197 20.328 20.328 0 0 1-.303-3.803q0-12.672 5.738-15.041 11.065-4.918 33.05-8.41 29.795-4.87 33.188-5.738a23.599 23.599 0 0 1 6.05-.148q4.279.295 6.344 1.918 5.312 4.28 8.41 12.09a31.87 31.87 0 0 1 2.369 13.714zm104.034 38.206q-1.639 2.95-9.295 12.688-1.64 1.91-8.115 1.91a17.353 17.353 0 0 1-5.901-.82q-2.214-.82-6.787-6.122a221.073 221.073 0 0 0-6.345-7.23q-11.057-11.205-19.025-16.394-3.278-2.065-9.885-7.082-1.64.148-3.394 2.951a34.074 34.074 0 0 0-1.475 6.492q-.148.738.59 9.016.885 9.296.885 13.861c0 3.279-.245 5.46-.737 6.64l-1.328 2.516a3.353 3.353 0 0 1-2.508 1.91q-8.263 1.336-13.28-1.475-5.016-2.812-7.663-9.87a35.345 35.345 0 0 1-2.214-12.532 98.846 98.846 0 0 1 1.246-13.115 97.133 97.133 0 0 0 1.255-11.951c0-1.082-.05-2.107-.14-3.099-.106-.393-.918-1.393-2.459-3.016a10.918 10.918 0 0 1-2.73-4.099 35.37 35.37 0 0 1-1.639-9.582q0-8.131 5.46-12.393c.294-.197 1.712-.443 4.27-.738a4.812 4.812 0 0 0 4.14-3.099 102.15 102.15 0 0 0 5.45-23.606c.099-.296-.246-.82-1.033-1.476l-1.77-1.467a22.345 22.345 0 0 1-4.426-8.402 12.197 12.197 0 0 1-.435-3.402 28.492 28.492 0 0 1 3.541-13.27q3.82-7.525 9.582-9.738 9.443-3.541 23.017-3.394 16.394 0 28.32 17.115 11.066 15.771 11.066 33.78a33.238 33.238 0 0 1-2.36 12.983q-1.64 4.87-5.46 13.714-2.36 3.279-4.721 6.647-3.836 5.607-3.836 6.337c0 .885 1.082 2.32 3.278 4.278q2.795 2.804 9.287 6.64 7.968 4.869 11.066 7.082 7.82 5.738 7.82 15.197a11.254 11.254 0 0 1-1.312 5.615zm-54.32-97.658q-1.476 0-1.77 2.361c.196 2.254.294 5.36.294 9.287q-1.475 8.115-3.098 21.09a22.623 22.623 0 0 0 13.574-8.106q4.869-5.902 4.869-12.541a11.705 11.705 0 0 0-3.541-8.853c-2.36-2.262-5.812-3.32-10.328-3.238zm160.502 2.509c-1.18 2.459-3.737 4.18-7.672 5.155l-7.082 1.18a63.616 63.616 0 0 1-12.09 3.1 79.51 79.51 0 0 0-8.123 1.327c-3.927.894-7.812 1.77-11.648 2.656a70.73 70.73 0 0 0-14.607 5.607q-3.54 1.639-4.098 9.295 1.033 1.77 2.36 1.77 5.46.148 16.156-3.098 10.697-3.246 16.009-3.279 1.77 0 3.393.148 6.337 1.032 10.468 10.918a41.558 41.558 0 0 1 3.54 16.23 9.533 9.533 0 0 1-.286 2.459q-.46 2.672-9.295 4.918-6.05 1.459-18.148 1.762-9.295.156-31.566 5.902-1.787.443-2.222 3.098a5.795 5.795 0 0 0 .295 3.402c.599 1.172 1.894 1.959 3.91 2.352 2.017.394 3.173.738 3.468 1.033a12.426 12.426 0 0 0 8.377 3.443q3.54 0 9.295-2.46 5.754-2.458 7.82-2.458a5.107 5.107 0 0 1 3.54 1.328q9.149 8.852 9.149 19.615a19.074 19.074 0 0 1-2.214 9.156q-5.737 10.91-23.164 10.328a44.509 44.509 0 0 1-21.246-5.607q-4.869-1.492-14.156-6.352-5.017-3.68-8.853-12.533a51.755 51.755 0 0 1-4.278-15.493q-.148-2.655-.148-5.303 0-14.46 10.025-39.099 3.844.885 3.844-4.098c0-1.64-.393-2.845-1.18-3.541a20.492 20.492 0 0 1-3.984-.443q-6.492-6.787-6.492-17.41 0-10.033 5.607-14.894a12.066 12.066 0 0 1 5.311-2.54l5.599-1.19a38.771 38.771 0 0 1 5.459-2.95 569.837 569.837 0 0 1 57.534-13.386 15.074 15.074 0 0 1 2.95-.295q9.443 0 13.575 11.476c0 .09 1.13 2.803 3.393 8.107q2.066 4.918 2.066 7.68a7.213 7.213 0 0 1-.59 2.984zm102.38-11.066a9.754 9.754 0 0 1 .59 3.836 21.18 21.18 0 0 1-2.361 9.558q-6.787 1.483-30.239 3.836-16.393 1.639-28.762 7.377-.902.442-2.361 3.54a477.163 477.163 0 0 1-2.066 4.722q-.885 1.328-3.106 4.279a14.09 14.09 0 0 0 6.344 1.32 43.148 43.148 0 0 0 9.886-1.476q4.573-1.164 9.295-2.352a19.025 19.025 0 0 0 4.426-1.926c2.46-1.46 4.033-2.353 4.721-2.648a2.926 2.926 0 0 1 1.304-.279 12.656 12.656 0 0 1 6.123 1.984 11.935 11.935 0 0 1 4.795 4.5q4.574 8.557 5.303 12.984 1.64 9.885-1.467 12.238-4.574 3.393-14.976 6.418-10.401 3.024-16.885 2.59a7.377 7.377 0 0 0-2.59 1.172 11.033 11.033 0 0 1-2.73 1.328l-24.631 3.55a5.557 5.557 0 0 0-3.28 1.91 4.762 4.762 0 0 0-1.475 3.098 1.992 1.992 0 0 0 .59 1.475q5.738 4.869 16.968 4.918 15.189 0 20.796-6.795a2.566 2.566 0 0 1 1.77-.885 2.73 2.73 0 0 1 1.918.295 24.353 24.353 0 0 1 8.394 10.697 30.37 30.37 0 0 1 2.582 14.082q-1.18 16.394-17.115 18.295c-2.164.5-5.509 1.082-10.033 1.77q-6.935.738-20.648-2.655-14.312-3.672-17.558-7.672a90.928 90.928 0 0 1-8.115-13.419q-6.049-11.95-6.197-18.852c-.098-2.156.443-6 1.64-11.476l2.36-12.09a117.215 117.215 0 0 1 4.099-15.935q1.344-4.074 8.574-19.263.443-1.049 1.18-10.033.738-8.983 1.918-12.401 1.033-2.951 5.607-4.714c2.459-.893 4.967-1.77 7.525-2.655q5-2.804 8.262-3.28c1.77-.097 3.582-.204 5.451-.294q3.393-.451 23.312-5.312 16.394-3.983 23.312-3.278 7.967.885 10.475 5.303 2.508 3.877 7.074 12.615zm219.962 18.853q.295 8.852-7.525 18.738a66.304 66.304 0 0 1-14.607 13.59q-7.205 4.836-23.46 10.18l-11.204 3.673q-1.918.73-3.992 12.836-1.918 10.607-1.91 15.631v20.353a134.607 134.607 0 0 1-1.64 6.5 10.025 10.025 0 0 1-4.918 6.189 9.902 9.902 0 0 1-7.893.59c-2.262-.688-3.787-1.172-4.574-1.475a9.074 9.074 0 0 1-3.689-2.5q-5.459-6.345-5.459-17.263a111.715 111.715 0 0 1 1.107-12.918 110.657 110.657 0 0 0 1.106-12.46 29.73 29.73 0 0 0-.442-5.45q-.148-.754-4.574-4.73-5.607-5.016-7.074-6.631-3.279-3.697-3.279-10.476a33.828 33.828 0 0 1 2.066-11.475 20.82 20.82 0 0 1 3.098-4.353c1.78-2.115 3.148-3.279 4.099-3.467a53.206 53.206 0 0 0 6.492-1.476 3.787 3.787 0 0 0 2.377-3.401q1.18-13.87 1.18-15.345c0-1.172-.82-1.77-2.36-1.77a31.066 31.066 0 0 0-14.607 3.278c-5.599 2.951-9.837 4.435-12.68 4.435a9.623 9.623 0 0 1-2.583-.303 17.886 17.886 0 0 1-4.098-2.353q-3.041-2.074-4.099-1.779-2.508 2.804-2.065 4.435a44.542 44.542 0 0 1 2.213 13.27q0 1.476-.443 7.23a61.829 61.829 0 0 0 0 8.55 117.215 117.215 0 0 1-.885 17.115q-.885 9.303-1.918 18.59a14.754 14.754 0 0 0 .82 4.721q.959 3.394 1.106 3.984a78.92 78.92 0 0 1 0 15.345c-.59 4.098-.983 6.557-1.18 7.377a20.918 20.918 0 0 1-5.017 9.582q-1.918 2.36-10.656 2.369c-3.836 0-6.344-.402-7.524-1.189q-6.64-4.262-9.443-17.55-2.95-14.458-7.517-19.18-2.213-2.36-10.328-16.525l-2.655-5.303a16.328 16.328 0 0 0-5.017-5.902q-3.54 1.476-8.852 29.353 0 .295-1.64 12.541-1.033 7.378-2.803 10.771-3.099 5.607-9.738 4.566-16.082-2.795-16.082-20.353a82.305 82.305 0 0 1 1.983-15.23q2.509-11.64 5.017-23.451a188.216 188.216 0 0 0 3.279-25.23q1.18-19.164 1.18-19.763a5.64 5.64 0 0 0-.975-1.95 5.246 5.246 0 0 1-.96-2.46q0-15.049.517-19.549.516-4.5 5.057-8.943 4.574-4.426 9.443-4.426a8.558 8.558 0 0 1 3.836.877q.443.164 4.87 1.041 3.688.738 5.016 2.066 4.278 4.098 5.164 14.754.59 8.705 1.032 17.41a32.861 32.861 0 0 0 5.902 13.27l8.55 10.919q2.803 4.279 5.614 8.41 4.099 5.607 6.189 5.164.148-2.213 1.18-9.295 1.033-6.492 1.033-7.082v-19.624q0-.295.59-5.23c.394-3.278.64-5.778.738-7.458q.295-5.148 1.475-16.96a6.164 6.164 0 0 1 2.656-4.205 8.246 8.246 0 0 1 4.87-1.549q5.458 0 10.475 4.918 5.016 4.918 5.016 10.115 1.918-2.516 8.263-7.082c.483-.295 3.049-1.303 7.672-3.033 4.623-1.73 7.172-2.623 7.664-2.721a73.722 73.722 0 0 1 7.672-1.18 10.394 10.394 0 0 1 6.64 2.213q2.836-1.754 5.492-3.525 3.54-2.213 5.737-2.213a19.951 19.951 0 0 1 4.5.877 15.353 15.353 0 0 0 5.09.746c3.64-.205 8.263-.394 13.87-.59a160.986 160.986 0 0 1 26.697 1.918q1.328.295 5.459 1.697a31.705 31.705 0 0 1 5.041 1.983q6.787 4.918 11.287 14.607a52.116 52.116 0 0 1 4.935 19.623zm-30.69-3.689q.59-4.557-11.36-6.197-7.968-.442-15.935-1.033c-2.156-.188-3.484.64-3.975 2.509q.885 6.64 3.237 17.557c.5 1.386 1.722 2.066 3.689 2.066q5.016 0 15.197-5.738 8.557-4.713 9.148-9.14zm139.708-16.787q.442 5.738.442 4.566a9.836 9.836 0 0 1-4.098 8.27q-2.803 2.066-24.197 6.189l-18.443 2.95q-10.164 1.771-26.992 7.525-2.804 1.033-5.68 6.05c-1.919 3.344-3.025 6.04-3.28 8.115 1.28 1.475 3.542 2.204 6.788 2.204q1.77 0 12.54-1.639 11.952-1.64 17.116-3.836 5.311-2.803 10.762-5.46 4.279 1.64 7.599 9.017a34.746 34.746 0 0 1 3.278 14.312q0 7.517-5.016 11.213-3.984 2.804-11.795 3.68l-12.689 1.181q-8.59 1.779-25.673 4.615-4.098.311-8.41.443a19.812 19.812 0 0 0-7.885 2.065c-1.918 1.082-2.877 2.517-2.877 4.279a2.016 2.016 0 0 0 .295 1.18q5.738 7.968 15.041 7.968a29.394 29.394 0 0 0 13.574-3.689q1.328-.443 9.59-3.541 6.493-2.36 8.116-2.352a.82.82 0 0 1 .59.139q8.557 7.246 8.549 19.476a22.074 22.074 0 0 1-3.828 12.983 19.976 19.976 0 0 1-12.541 7.96 51.206 51.206 0 0 1-5.902 2.95q-3.836 1.328-12.689 1.18-27.295-.868-40.164-18.737-7.23-10.32-7.23-25.517a71.55 71.55 0 0 1 1.918-16.222 127.797 127.797 0 0 1 10.656-27.812q7.5-14.557 15.164-29.148a52.673 52.673 0 0 0 2.066-7.532 18.32 18.32 0 0 1 3.992-7.894q2.647-2.869 9.582-4.787 6.05-1.475 12.099-2.803 18.278-4.099 51.336-12.837 1.476-.59 5.46.59 4.573 1.329 5.737 3.394 1.77 4.574 5.46 12.68a16.886 16.886 0 0 1 1.639 6.632zm330.153 18.59c-.296.582-1.033.877-2.214.877q-2.36 0-11.803-3.098c-.197-.098-1.566.205-4.098.893a63.853 63.853 0 0 1-8.115 1.64 177.634 177.634 0 0 1-19.181 1.188q-20.492 0-30.68 2.5-9.296 1.64-18.591 3.107-11.361 2.943-11.361 11.795a23.41 23.41 0 0 0 .443 4.28h20.36q12.1-.148 19.919-3.108 1.172-.426 4.418 2.37a33.132 33.132 0 0 1 9.443 13.72 18.14 18.14 0 0 1 1.18 8.853q-.443 3.09-.885 6.197-.738 4.263-2.508 6.336-1.77 2.074-6.345 3.689a64.083 64.083 0 0 0-7.672 2.95c.303.591 1.426 1.747 3.393 3.468 1.968 1.722 3.148 3.279 3.541 4.648a22.951 22.951 0 0 1 .738 6.344q0 9.886-4.098 15.05-2.951 3.836-11.943 5.737l-15.935 2.943a25.525 25.525 0 0 0-2.459.894 10.943 10.943 0 0 1-3.615.877 72.583 72.583 0 0 1-23.311-3.68q-14.312-4.739-20.361-14.313c-1.64-2.655-2.894-3.983-3.68-3.983a1.984 1.984 0 0 0-1.181.434q-3.394 6.197-6.935 12.402-5.606 9.017-11.36 11.36a27.533 27.533 0 0 1-9.59 1.763q-12.542 0-32.01-7.959a105.56 105.56 0 0 1-26.23-15.787q-12.393-9.836-16.82-18.033c-1.376-1.566-3.278-3.885-5.737-6.926a2.074 2.074 0 0 0-1.64.877 33.32 33.32 0 0 0-1.778 11.213c0 1.975.172 4.844.524 8.631.353 3.787.517 6.615.517 8.484a29.96 29.96 0 0 1-2.361 12.238c-1.975 4.533-4.189 6.885-6.64 7.082q-13.721 1.64-17.705-13.418-1.639-5.902-1.918-25.525 0-2.361-2.803-2.804a25.214 25.214 0 0 0-5.164-.442 86.206 86.206 0 0 0-15.64 1.64q-8.705 1.638-12.975 3.688-1.033 1.918-2.804 4.869a135.674 135.674 0 0 0-6.049 12.836q-6.197 14.46-12.689 16.812c-2.852-1.37-7.082-3.492-12.688-6.337q-.886-.442-2.5-6.049a27.664 27.664 0 0 1-1.189-7.975 20.033 20.033 0 0 1 4.279-12.976q5.607-6.935 9.148-17.853 6.139-18.566 6.721-20.057.295-.73 2.582-2.574a17.492 17.492 0 0 0 3.025-2.877 59.837 59.837 0 0 0 4.426-7.082q8.566-16.386 17.017-32.78 11.934-20.656 23.893-26.844a9.156 9.156 0 0 1 4.574-.886q4.427 0 6.64 2.058 11.36 10.188 16.672 29.37 3.099 11.212 4.722 30.68 3.082 0 6.926-6.64 5.18-9.442 5.902-10.18 13.115-14.902 32.787-23.894 19.164-8.852 37.173-8.852a61.927 61.927 0 0 1 10.656.877c2.164.401 4.746 2.287 7.746 5.688 3 3.402 4.992 6.615 5.975 9.664a59.124 59.124 0 0 1 2.951 19.025 27.345 27.345 0 0 1-.738 6.787 29.509 29.509 0 0 1-5.016 10.328q-4.099 5.738-8.705 7.23a6.36 6.36 0 0 1-2.508.443c-3.148 0-6.763-.894-10.845-2.656-4.082-1.763-6.418-3.59-7.008-5.468q-2.804-7.655-1.172-13.86c.09-.296.483-1.328 1.172-3.099a9.131 9.131 0 0 0 .737-3.09 4.189 4.189 0 0 0-1.327-3.098q-14.46-1.64-30.239 13.27t-15.197 28.919q.148 3.836 11.804 11.803a73.304 73.304 0 0 0 15.377 7.836q10.78 3.984 18.304 3.984 7.803 0 17.992-6.64a39.23 39.23 0 0 1 7.672-3.827q2.508 2.344 7.082 6.336 1.918-1.18 2.058-7.23.164-7.524.598-9.016 1.64-6.197 5.607-19.033 3.098-7.099 8.844-20.952 0-3.688.303-9.73a29.664 29.664 0 0 1 4.427-11.59q3.385-5.23 13.115-8.196 2.803-.886 12.393-1.77 12.984-1.329 16.23-1.78 8.836-1.639 17.853-3.278 11.787-2.05 19.32-1.91 1.475 0 5.738-1.64a38.468 38.468 0 0 1 6.787-2.213q.737-.147 9.147-2.213a37.583 37.583 0 0 1 9.148-1.475q9.582 0 15.189 9.295a34.845 34.845 0 0 1 4.869 18.295q.025 6.287-2.041 10.123zm-284.275 12.09a73.411 73.411 0 0 0-.886-7.672 3.844 3.844 0 0 0-1.696-2.213 6.041 6.041 0 0 0-3.025-1.328q-3.689 6.951-7.377 14.017-4.722 8.853-4.722 13.279h8.886q4.721-.295 6.492-1.64 1.77-1.344 2.328-14.442zm210.511 51.043q-11.803-1.033-16.221-1.033h-15.197c-1.968-.09-5.017-.148-9.148-.148-3.64.205-5.36 1.82-5.164 4.87q9.295 3.983 15.492 3.983a24.418 24.418 0 0 0 9.27-1.918 10.074 10.074 0 0 1 5.386-.37 13.77 13.77 0 0 0 5.533-.073q4.008-.885 10.05-5.312z" fill="#6c0"/></svg>