<?xml version="1.0" encoding="UTF-8" standalone="no"?>
<svg xmlns="http://www.w3.org/2000/svg" version="1.1" viewBox="0 0 128 128">
    <g id="layer2" transform="translate(0,-199.99871)">
        <g id="nu-logo-128" transform="translate(0,192.7944)">
            <path id="path2987-5" d="m 56.796,14.409 c 25.506,0 47.085,16.817 54.259,39.965 -8.206,1.228 -14.503,8.282 -14.503,16.83 0,8.549 6.297,15.605 14.503,16.829 C 103.881,111.183 82.302,128 56.796,128 25.431,128 0,102.57 0,71.204 0,39.836 25.431,14.409 56.796,14.409 Z" style="fill:#020051;fill-rule:evenodd" />
            <path id="path2991-2" d="m 99.603,70.953 c 0,-7.839 6.36,-14.2 14.199,-14.2 7.837,0 14.198,6.36 14.198,14.2 0,7.838 -6.361,14.198 -14.198,14.198 -7.839,0.001 -14.199,-6.36 -14.199,-14.198 z" style="fill:#b50c16;fill-rule:evenodd" />
            <g id="g3298">
                <path d="m 17.381522,48.378721 c 0,-0.863354 0.873012,-1.800104 1.750852,-1.800104 l 33.421672,0 c 0.922264,0 1.524874,0.906812 1.524874,1.800104 l 0,45.862092 c 0,0.87011 -0.495415,1.58957 -1.524874,1.58957 l -13.55486,0 c -0.903914,0 -1.337523,-0.63158 -1.337523,-1.58957 l 0,-34.12665 c 0,-2.380502 -3.862884,-2.323524 -3.862884,0.01062 l 0,34.11603 c 0,0.92612 -0.744571,1.58957 -1.575091,1.58957 l -13.091314,0 c -0.933852,0 -1.750852,-0.62095 -1.750852,-1.58957 l 0,-45.862092 z m 40.560282,45.953832 c 0,0.86142 0.144858,1.49783 1.020767,1.49783 l 33.422637,0 c 0.92323,0 1.28827,-0.6055 1.28827,-1.49783 l 0,-45.862088 c 0,-0.871081 -0.25881,-1.891848 -1.2873,-1.891848 l -13.554864,0 c -0.90488,0 -1.575091,0.932887 -1.575091,1.891848 l 0,34.125678 c 0,2.38244 -3.862884,2.32353 -3.862884,-0.0106 l 0,-34.115078 c 0,-0.926127 -0.507969,-1.891848 -1.338489,-1.891848 l -13.092279,0 c -0.932887,0 -1.020767,0.923229 -1.020767,1.891848 l 0,45.862088 z" id="path3105-1" style="fill:#fff;fill-rule:evenodd" />
            </g>
            <g transform="translate(53.235094,36.74584)" id="flowRoot3358" style="fill:#fff">
                <path d="m 62.132812,39.932723 -2.195312,0 0,-4.234375 c -6e-6,-0.895828 -0.04688,-1.473953 -0.140625,-1.734375 -0.09376,-0.265619 -0.247402,-0.471348 -0.460938,-0.617188 -0.208339,-0.145826 -0.460942,-0.218743 -0.757812,-0.21875 -0.380213,7e-6 -0.721359,0.104174 -1.023438,0.3125 -0.302087,0.20834 -0.51042,0.484381 -0.625,0.828125 -0.109378,0.343756 -0.164065,0.979172 -0.164062,1.90625 l 0,3.757813 -2.195313,0 0,-8.296875 2.039063,0 0,1.21875 c 0.723954,-0.937492 1.635412,-1.406242 2.734375,-1.40625 0.484369,8e-6 0.927076,0.08855 1.328125,0.265625 0.401034,0.171883 0.703117,0.393237 0.90625,0.664062 0.208325,0.270841 0.351554,0.578132 0.429687,0.921875 0.08333,0.343757 0.124992,0.835944 0.125,1.476563 l 0,5.15625" id="path3121" />
                <path d="m 64.367187,39.932723 0,-11.453125 2.195313,0 0,11.453125 -2.195313,0" id="path3123" />
            </g>
        </g>
    </g>
</svg>
